<?xml version="1.0" encoding="UTF-8"?>
		<svg xmlns="http://www.w3.org/2000/svg" viewBox="0 0 1000 2000">
    <g id="Grit-Parts">
    <path transform="scale(1.8784062590892625 1.7498411364441897) rotate(89.05848045502351 414.92324741124474 21.87605964989281) translate(414.92324741124474,21.87605964989281)" d="M10,5.949 L10,3.077 L10,0 L8.2,0 C7.4,0 6.6,1.026 6.6,2.256 L6.6,4.513 L3.4,3.282 L0,2.051 L2.4,4.923 L4.8,8 L7.4,6.974 L10,5.949 Z" fill="rgba(0,0,0,0.31410438737018476)"></path><path transform="scale(1.96069922755499 1.9472433801054478) rotate(96.31603557682874 283.2752337934086 1181.707516020219) translate(283.2752337934086,1181.707516020219)" d="M0,5 L1.615,3.846 L3,2.5 L1.615,1.154 L0,0 L0,2.5 Z" fill="rgba(0,0,0,0.6033513178217185)"></path><path transform="scale(1.7443243968174649 1.2620534287293874) rotate(100.42225172863203 304.98298789375997 1991.4651313387192) translate(304.98298789375997,1991.4651313387192)" d="M1,2 C1.6,2 2,1.6 2,1 C2,0.4 1.6,0 1,0 C0.4,0 0,0.4 0,1 C0,1.6 0.4,2 1,2 Z" fill="rgba(0,0,0,0.7553264502951895)"></path><path transform="scale(1.0158533566628118 1.615358740757659) rotate(70.37248833387753 523.0450939387903 1607.8363745143195) translate(523.0450939387903,1607.8363745143195)" d="M1,2 C1.6,2 2,1.6 2,1 C2,0.4 1.6,0 1,0 C0.4,0 0,0.4 0,1 C0,1.6 0.4,2 1,2 Z" fill="rgba(0,0,0,0.9480627592961781)"></path><path transform="scale(1.5873669588116954 0.9415264163030687) rotate(136.7495975588669 453.5305047427225 732.2790407069965) translate(453.5305047427225,732.2790407069965)" d="M2.857,4 C4.381,4 6.286,3 6.857,2 L8,0 L5.143,0 C3.619,0 1.714,0.8 1.143,2 L0,4 L2.857,4 Z" fill="rgba(0,0,0,0.6249868697120606)"></path><path transform="scale(1.645936886847236 1.6914465110170176) rotate(284.9734536817609 589.8606985942665 1705.5921132520675) translate(589.8606985942665,1705.5921132520675)" d="M3.238,4 C3.619,4 4,3 4,2 L4,0 L1.905,0 L0,0 L1.143,2 C1.714,3 2.667,4 3.238,4 Z" fill="rgba(0,0,0,0.21421894651559548)"></path><path transform="scale(1.8268724511015222 1.5307264849814182) rotate(167.23702950705447 465.4349653155523 56.09781190158092) translate(465.4349653155523,56.09781190158092)" d="M2.857,4 C4.381,4 6.286,3 6.857,2 L8,0 L5.143,0 C3.619,0 1.714,0.8 1.143,2 L0,4 L2.857,4 Z" fill="rgba(0,0,0,0.7498792218431223)"></path><path transform="scale(0.7175023738155668 1.7109449255372882) rotate(238.84132544532528 492.14242303410805 434.131851030072) translate(492.14242303410805,434.131851030072)" d="M1,2 C1.6,2 2,1.6 2,1 C2,0.4 1.6,0 1,0 C0.4,0 0,0.4 0,1 C0,1.6 0.4,2 1,2 Z" fill="rgba(0,0,0,0.8121384910339469)"></path><path transform="scale(1.2220992111213342 1.9162037853180274) rotate(159.86133017109282 67.12922899315265 130.28044851045496) translate(67.12922899315265,130.28044851045496)" d="M0,5 L1.615,3.846 L3,2.5 L1.615,1.154 L0,0 L0,2.5 Z" fill="rgba(0,0,0,0.7822334576203087)"></path><path transform="scale(1.8773943296372175 0.5496957021792639) rotate(287.5638420833858 936.9379623655161 764.7007168088215) translate(936.9379623655161,764.7007168088215)" d="M2.391,3.48892289 C3.913,2.62492289 5,1.54592289 5,0.89792289 C5,-0.82807711 3.043,0.03492289 1.522,2.62492289 L0,4.99992289 L2.391,3.48892289 Z" fill="rgba(0,0,0,0.5935205496456109)"></path><path transform="scale(0.670401386641717 0.5243681561536525) rotate(30.08288590427093 2.1504126126163925 1015.7282552652593) translate(2.1504126126163925,1015.7282552652593)" d="M3.238,4 C3.619,4 4,3 4,2 L4,0 L1.905,0 L0,0 L1.143,2 C1.714,3 2.667,4 3.238,4 Z" fill="rgba(0,0,0,0.549656585395722)"></path><path transform="scale(0.636434172533302 0.7939894108968586) rotate(325.3193704000058 939.701946836874 1675.1295722083155) translate(939.701946836874,1675.1295722083155)" d="M2.391,3.48892289 C3.913,2.62492289 5,1.54592289 5,0.89792289 C5,-0.82807711 3.043,0.03492289 1.522,2.62492289 L0,4.99992289 L2.391,3.48892289 Z" fill="rgba(0,0,0,0.15983767791078662)"></path><path transform="scale(0.5746017687119194 1.4090021247057705) rotate(322.8794479766717 609.076128863844 1523.9542574554678) translate(609.076128863844,1523.9542574554678)" d="M0,5 L1.615,3.846 L3,2.5 L1.615,1.154 L0,0 L0,2.5 Z" fill="rgba(0,0,0,0.3200198158131622)"></path><path transform="scale(0.9684418562626442 0.897378863613345) rotate(308.01401884320336 741.7216976280998 1793.4298603895872) translate(741.7216976280998,1793.4298603895872)" d="M2.857,4 C4.381,4 6.286,3 6.857,2 L8,0 L5.143,0 C3.619,0 1.714,0.8 1.143,2 L0,4 L2.857,4 Z" fill="rgba(0,0,0,0.9168081425400527)"></path><path transform="scale(0.8863173216141588 1.4230534082273196) rotate(283.79054909444375 362.0161534353405 140.62229532767878) translate(362.0161534353405,140.62229532767878)" d="M10,5.949 L10,3.077 L10,0 L8.2,0 C7.4,0 6.6,1.026 6.6,2.256 L6.6,4.513 L3.4,3.282 L0,2.051 L2.4,4.923 L4.8,8 L7.4,6.974 L10,5.949 Z" fill="rgba(0,0,0,0.943180293150065)"></path><path transform="scale(0.984306396944101 0.6986694035285883) rotate(144.6636379249841 344.9330707739828 1310.2166788183024) translate(344.9330707739828,1310.2166788183024)" d="M3.238,4 C3.619,4 4,3 4,2 L4,0 L1.905,0 L0,0 L1.143,2 C1.714,3 2.667,4 3.238,4 Z" fill="rgba(0,0,0,0.14288580760213998)"></path><path transform="scale(1.9884381314805055 0.6743489858320861) rotate(359.08573630390015 465.7076703093914 1636.4971425650895) translate(465.7076703093914,1636.4971425650895)" d="M2.857,4 C4.381,4 6.286,3 6.857,2 L8,0 L5.143,0 C3.619,0 1.714,0.8 1.143,2 L0,4 L2.857,4 Z" fill="rgba(0,0,0,0.9721762124841729)"></path><path transform="scale(1.9968436652567874 1.757702282478832) rotate(310.5621224160312 352.65821327373436 1703.9626769124961) translate(352.65821327373436,1703.9626769124961)" d="M2.857,4 C4.381,4 6.286,3 6.857,2 L8,0 L5.143,0 C3.619,0 1.714,0.8 1.143,2 L0,4 L2.857,4 Z" fill="rgba(0,0,0,0.2254936689739786)"></path><path transform="scale(0.630079999992811 1.0831609297819742) rotate(88.70293914975097 239.41506412534542 488.5478564356696) translate(239.41506412534542,488.5478564356696)" d="M2.5,3 L3.846,1.615 L5,0 L2.5,0 L0,0 L1.154,1.615 Z" fill="rgba(0,0,0,0.9455935133777678)"></path><path transform="scale(1.8601705855951742 1.3194891466857648) rotate(67.94736357723805 804.9815588801026 207.20461617974584) translate(804.9815588801026,207.20461617974584)" d="M3,9 L5,7.085 L7,5.17 L6,2.489 L5,0 L4.8,3.447 L4.6,6.894 L2.2,5.553 L0,4.213 L1.6,6.511 Z" fill="rgba(0,0,0,0.38221834873463467)"></path><path transform="scale(1.2103481311496822 1.4976096730402984) rotate(142.31181816441568 628.618533439222 910.5366968733075) translate(628.618533439222,910.5366968733075)" d="M3,9 L5,7.085 L7,5.17 L6,2.489 L5,0 L4.8,3.447 L4.6,6.894 L2.2,5.553 L0,4.213 L1.6,6.511 Z" fill="rgba(0,0,0,0.7036721787105467)"></path><path transform="scale(1.653217065674692 1.955698916933624) rotate(128.96041213929215 873.855670832437 747.2095975625858) translate(873.855670832437,747.2095975625858)" d="M1,2 C1.6,2 2,1.6 2,1 C2,0.4 1.6,0 1,0 C0.4,0 0,0.4 0,1 C0,1.6 0.4,2 1,2 Z" fill="rgba(0,0,0,0.4795138994392094)"></path><path transform="scale(0.7092215770244408 1.9501596745467293) rotate(275.12606229884256 412.5003889893852 1178.4194759628526) translate(412.5003889893852,1178.4194759628526)" d="M2.857,4 C4.381,4 6.286,3 6.857,2 L8,0 L5.143,0 C3.619,0 1.714,0.8 1.143,2 L0,4 L2.857,4 Z" fill="rgba(0,0,0,0.6004183611883149)"></path><path transform="scale(0.9343822512415868 0.5407802365261211) rotate(168.93677645631726 15.981616070749105 1628.3093223406374) translate(15.981616070749105,1628.3093223406374)" d="M1,2 C1.6,2 2,1.6 2,1 C2,0.4 1.6,0 1,0 C0.4,0 0,0.4 0,1 C0,1.6 0.4,2 1,2 Z" fill="rgba(0,0,0,0.06096284162583343)"></path><path transform="scale(1.9544612440109363 1.4120161021426034) rotate(53.97429685875889 985.8733293492962 1665.327585129468) translate(985.8733293492962,1665.327585129468)" d="M10,5.949 L10,3.077 L10,0 L8.2,0 C7.4,0 6.6,1.026 6.6,2.256 L6.6,4.513 L3.4,3.282 L0,2.051 L2.4,4.923 L4.8,8 L7.4,6.974 L10,5.949 Z" fill="rgba(0,0,0,0.4102007927342206)"></path><path transform="scale(0.8646275757015633 1.8566037356014014) rotate(23.477816907760804 133.51006923621546 366.34859982580315) translate(133.51006923621546,366.34859982580315)" d="M4,6 L2.8,3.077 C1.4,-0.429 0,-1.014 0,1.713 C0,2.882 0.8,4.246 2,4.831 L4,6 Z" fill="rgba(0,0,0,0.7457852398194673)"></path><path transform="scale(0.6093447137134931 0.6993792933078488) rotate(4.625510331699143 19.720801531784904 1769.003951490069) translate(19.720801531784904,1769.003951490069)" d="M4,6 L2.8,3.077 C1.4,-0.429 0,-1.014 0,1.713 C0,2.882 0.8,4.246 2,4.831 L4,6 Z" fill="rgba(0,0,0,0.5039419103101783)"></path><path transform="scale(1.2298295313841052 0.6429871069162686) rotate(358.8423417867251 327.3014367706808 1492.852074901734) translate(327.3014367706808,1492.852074901734)" d="M1,2 C1.6,2 2,1.6 2,1 C2,0.4 1.6,0 1,0 C0.4,0 0,0.4 0,1 C0,1.6 0.4,2 1,2 Z" fill="rgba(0,0,0,0.01893329060350335)"></path><path transform="scale(0.9849451975510424 0.5988448913936701) rotate(79.52760366880963 724.7931609608231 1880.8115254322013) translate(724.7931609608231,1880.8115254322013)" d="M3,9 L5,7.085 L7,5.17 L6,2.489 L5,0 L4.8,3.447 L4.6,6.894 L2.2,5.553 L0,4.213 L1.6,6.511 Z" fill="rgba(0,0,0,0.1999888163832919)"></path><path transform="scale(1.18797140904209 1.5045512335637343) rotate(297.4589561406759 985.4862746762223 898.5218372837301) translate(985.4862746762223,898.5218372837301)" d="M2.5,3 L3.846,1.615 L5,0 L2.5,0 L0,0 L1.154,1.615 Z" fill="rgba(0,0,0,0.7294902705566311)"></path><path transform="scale(0.6178637746077461 1.3206082430991262) rotate(28.68391007368583 399.11107663633595 892.6181037199168) translate(399.11107663633595,892.6181037199168)" d="M1,2 C1.6,2 2,1.6 2,1 C2,0.4 1.6,0 1,0 C0.4,0 0,0.4 0,1 C0,1.6 0.4,2 1,2 Z" fill="rgba(0,0,0,0.9462308771967611)"></path><path transform="scale(0.9859908194720393 1.4447864210438262) rotate(297.0459228114937 597.9720826476027 855.3822099548061) translate(597.9720826476027,855.3822099548061)" d="M3.238,4 C3.619,4 4,3 4,2 L4,0 L1.905,0 L0,0 L1.143,2 C1.714,3 2.667,4 3.238,4 Z" fill="rgba(0,0,0,0.93136656656079)"></path><path transform="scale(1.513921051517275 1.8628355188682613) rotate(176.66656006387404 37.62553510376754 1705.6892491952476) translate(37.62553510376754,1705.6892491952476)" d="M2.857,4 C4.381,4 6.286,3 6.857,2 L8,0 L5.143,0 C3.619,0 1.714,0.8 1.143,2 L0,4 L2.857,4 Z" fill="rgba(0,0,0,0.8499488510794282)"></path><path transform="scale(1.0262684157680455 1.9960006656598899) rotate(86.3547109658379 676.5455509434586 1495.5760946435573) translate(676.5455509434586,1495.5760946435573)" d="M2.857,4 C4.381,4 6.286,3 6.857,2 L8,0 L5.143,0 C3.619,0 1.714,0.8 1.143,2 L0,4 L2.857,4 Z" fill="rgba(0,0,0,0.042664420214633125)"></path><path transform="scale(0.8169681622040501 1.7902772718534017) rotate(162.53901674401058 827.3538306351385 1164.4721740612435) translate(827.3538306351385,1164.4721740612435)" d="M2.857,4 C4.381,4 6.286,3 6.857,2 L8,0 L5.143,0 C3.619,0 1.714,0.8 1.143,2 L0,4 L2.857,4 Z" fill="rgba(0,0,0,0.7412866275447565)"></path><path transform="scale(0.9829466785265059 0.7027683885785349) rotate(281.6979384025101 698.1729483457777 910.1082040066455) translate(698.1729483457777,910.1082040066455)" d="M3.238,4 C3.619,4 4,3 4,2 L4,0 L1.905,0 L0,0 L1.143,2 C1.714,3 2.667,4 3.238,4 Z" fill="rgba(0,0,0,0.07167613662207106)"></path><path transform="scale(1.5047466954009339 1.86847362168478) rotate(34.5351513896745 2.308105874635924 849.8197775659269) translate(2.308105874635924,849.8197775659269)" d="M3,9 L5,7.085 L7,5.17 L6,2.489 L5,0 L4.8,3.447 L4.6,6.894 L2.2,5.553 L0,4.213 L1.6,6.511 Z" fill="rgba(0,0,0,0.8020263172411342)"></path><path transform="scale(1.3108189557097678 1.875266036082786) rotate(156.93905610152126 716.0610921186885 982.2928976705674) translate(716.0610921186885,982.2928976705674)" d="M3.238,4 C3.619,4 4,3 4,2 L4,0 L1.905,0 L0,0 L1.143,2 C1.714,3 2.667,4 3.238,4 Z" fill="rgba(0,0,0,0.45607246774933796)"></path><path transform="scale(0.6269605589156885 0.5117007194831781) rotate(97.86759794177024 763.1045030580921 490.85772904728753) translate(763.1045030580921,490.85772904728753)" d="M3,9 L5,7.085 L7,5.17 L6,2.489 L5,0 L4.8,3.447 L4.6,6.894 L2.2,5.553 L0,4.213 L1.6,6.511 Z" fill="rgba(0,0,0,0.48969811523100515)"></path><path transform="scale(0.523880137627904 1.5685337123456433) rotate(16.71341194019793 497.3315876622886 155.89119678036357) translate(497.3315876622886,155.89119678036357)" d="M10,5.949 L10,3.077 L10,0 L8.2,0 C7.4,0 6.6,1.026 6.6,2.256 L6.6,4.513 L3.4,3.282 L0,2.051 L2.4,4.923 L4.8,8 L7.4,6.974 L10,5.949 Z" fill="rgba(0,0,0,0.07842516084368789)"></path><path transform="scale(1.319225696817667 1.4007962172090203) rotate(310.02215502566764 185.67678840726654 1028.7207888547268) translate(185.67678840726654,1028.7207888547268)" d="M2.391,3.48892289 C3.913,2.62492289 5,1.54592289 5,0.89792289 C5,-0.82807711 3.043,0.03492289 1.522,2.62492289 L0,4.99992289 L2.391,3.48892289 Z" fill="rgba(0,0,0,0.5725776473221751)"></path><path transform="scale(1.357731618822851 0.5078884522471752) rotate(357.04834412327585 547.992977346119 1992.9783062718918) translate(547.992977346119,1992.9783062718918)" d="M3.238,4 C3.619,4 4,3 4,2 L4,0 L1.905,0 L0,0 L1.143,2 C1.714,3 2.667,4 3.238,4 Z" fill="rgba(0,0,0,0.4466989445098073)"></path><path transform="scale(1.6703104825301582 1.0522474428654733) rotate(106.44944378323457 252.7328635261672 144.64715161762376) translate(252.7328635261672,144.64715161762376)" d="M4,6 L2.8,3.077 C1.4,-0.429 0,-1.014 0,1.713 C0,2.882 0.8,4.246 2,4.831 L4,6 Z" fill="rgba(0,0,0,0.4073792140322863)"></path><path transform="scale(0.607013983508115 0.9197424634479839) rotate(53.644242620475666 156.60118081503182 1313.5127802235784) translate(156.60118081503182,1313.5127802235784)" d="M1,2 C1.6,2 2,1.6 2,1 C2,0.4 1.6,0 1,0 C0.4,0 0,0.4 0,1 C0,1.6 0.4,2 1,2 Z" fill="rgba(0,0,0,0.8382208206296604)"></path><path transform="scale(0.9356303190342525 0.6630047679707013) rotate(350.3804680274414 944.4982066494894 1831.0224535012428) translate(944.4982066494894,1831.0224535012428)" d="M3,9 L5,7.085 L7,5.17 L6,2.489 L5,0 L4.8,3.447 L4.6,6.894 L2.2,5.553 L0,4.213 L1.6,6.511 Z" fill="rgba(0,0,0,0.012093090372120141)"></path><path transform="scale(1.4307044535473148 1.5391348527601314) rotate(181.43837993731353 465.08345005880744 792.1955747940098) translate(465.08345005880744,792.1955747940098)" d="M3.238,4 C3.619,4 4,3 4,2 L4,0 L1.905,0 L0,0 L1.143,2 C1.714,3 2.667,4 3.238,4 Z" fill="rgba(0,0,0,0.8169367798662754)"></path><path transform="scale(1.7567201590764236 0.9081681267117097) rotate(203.17724766088753 356.8631049292679 62.70539993186608) translate(356.8631049292679,62.70539993186608)" d="M3.238,4 C3.619,4 4,3 4,2 L4,0 L1.905,0 L0,0 L1.143,2 C1.714,3 2.667,4 3.238,4 Z" fill="rgba(0,0,0,0.27828789910159757)"></path><path transform="scale(1.8962467008954653 1.7914329007694911) rotate(156.95632120975625 619.62975100852 123.0642407793332) translate(619.62975100852,123.0642407793332)" d="M10,5.949 L10,3.077 L10,0 L8.2,0 C7.4,0 6.6,1.026 6.6,2.256 L6.6,4.513 L3.4,3.282 L0,2.051 L2.4,4.923 L4.8,8 L7.4,6.974 L10,5.949 Z" fill="rgba(0,0,0,0.8388487479639328)"></path><path transform="scale(0.7819133704151666 1.6978641524654245) rotate(64.11118211314074 771.6944196532627 277.499959535342) translate(771.6944196532627,277.499959535342)" d="M4,6 L2.8,3.077 C1.4,-0.429 0,-1.014 0,1.713 C0,2.882 0.8,4.246 2,4.831 L4,6 Z" fill="rgba(0,0,0,0.4084892156376436)"></path><path transform="scale(1.8205934978408254 0.8292166275747225) rotate(311.64496502718265 953.5978136093248 91.04671251917118) translate(953.5978136093248,91.04671251917118)" d="M4,6 L2.8,3.077 C1.4,-0.429 0,-1.014 0,1.713 C0,2.882 0.8,4.246 2,4.831 L4,6 Z" fill="rgba(0,0,0,0.4493492125734906)"></path>
</g>
		</svg>
	